<?xml version="1.0" encoding="UTF-8" standalone="no"?>
<!-- Created with Inkscape (http://www.inkscape.org/) -->

<svg
   width="200"
   height="12.7"
   viewBox="0 0 52.916666 3.3602082"
   version="1.1"
   id="svg322"
   inkscape:version="1.2.2 (b0a84865, 2022-12-01)"
   sodipodi:docname="harness_the_power_of_nix.svg"
   xmlns:inkscape="http://www.inkscape.org/namespaces/inkscape"
   xmlns:sodipodi="http://sodipodi.sourceforge.net/DTD/sodipodi-0.dtd"
   xmlns="http://www.w3.org/2000/svg"
   xmlns:svg="http://www.w3.org/2000/svg">
  <sodipodi:namedview
     id="namedview324"
     pagecolor="#ffffff"
     bordercolor="#000000"
     borderopacity="0.25"
     inkscape:showpageshadow="false"
     inkscape:pageopacity="0.0"
     inkscape:pagecheckerboard="true"
     inkscape:deskcolor="#d1d1d1"
     inkscape:document-units="mm"
     showgrid="false"
     showborder="false"
     borderlayer="false"
     showguides="false"
     inkscape:zoom="3.8782509"
     inkscape:cx="103.2682"
     inkscape:cy="87.281614"
     inkscape:window-width="1728"
     inkscape:window-height="1051"
     inkscape:window-x="0"
     inkscape:window-y="38"
     inkscape:window-maximized="1"
     inkscape:current-layer="layer1" />
  <defs
     id="defs319" />
  <g
     inkscape:label="Layer 1"
     inkscape:groupmode="layer"
     id="layer1">
    <g
       aria-label="Harness the Power of Nix"
       id="text380"
       style="font-size:35.2778px;font-family:'F37 Moon';-inkscape-font-specification:'F37 Moon';stroke-width:0.264583"
       transform="matrix(0.13724979,0,0,0.13724979,-1.1791391,-6.8309352)">
      <path
         d="M 8.5911902,73.935387 H 11.48397 V 63.598991 h 11.465285 v 10.336396 h 2.89278 V 51.040093 h -2.89278 v 9.807229 H 11.48397 V 51.040093 H 8.5911902 Z"
         id="path432"
         style="display:inline" />
      <path
         d="m 38.259741,74.252887 c 2.928057,0 5.044725,-1.305279 6.279448,-3.386669 v 3.069169 h 2.822225 V 57.178431 h -2.786947 v 3.245558 c -1.128889,-2.222502 -3.280835,-3.563058 -6.314726,-3.563058 -4.233336,0 -8.325561,3.668891 -8.325561,8.748895 0,5.080003 4.127502,8.643061 8.325561,8.643061 z m 0.388056,-2.610557 c -3.316114,0 -5.997227,-2.681113 -5.997227,-6.032504 0,-3.457225 2.681113,-6.138338 5.997227,-6.138338 3.386669,0 6.067781,2.681113 6.067781,6.138338 0,3.386668 -2.681112,6.032504 -6.067781,6.032504 z"
         id="path434" />
      <path
         d="m 52.547234,73.935387 h 2.857502 V 66.17427 c -0.03528,-3.739447 2.222502,-6.208893 5.679726,-6.208893 h 0.564445 v -3.104446 c -3.633613,0 -5.538615,1.76389 -6.244171,4.127503 v -3.810003 h -2.857502 z"
         id="path436" />
      <path
         d="m 73.325845,56.860931 c -2.610557,0 -4.727225,1.128889 -5.750281,3.316113 v -2.998613 h -2.751669 v 16.756956 h 2.822224 v -9.101673 c 0,-3.704169 2.398891,-5.362226 5.009448,-5.362226 2.786946,0 4.550837,1.869724 4.550837,5.150559 v 9.31334 h 2.822224 V 63.598991 c 0,-4.33917 -2.822224,-6.73806 -6.702783,-6.73806 z"
         id="path438" />
      <path
         d="m 92.587521,74.252887 c 2.89278,0 5.538615,-1.270001 7.05556,-3.421947 L 97.73808,69.349272 c -1.12889,1.587502 -3.069169,2.398891 -5.185837,2.398891 -3.351391,0 -5.750282,-2.257779 -6.067782,-5.362226 h 14.181679 c 0.0705,-0.388056 0.0705,-0.705556 0.0705,-0.987778 0,-4.621392 -3.63361,-8.537228 -8.396114,-8.537228 -4.97417,0 -8.572505,3.951113 -8.572505,8.713617 0,4.903614 3.880558,8.678339 8.81945,8.678339 z M 86.625572,63.951769 c 0.599723,-2.716391 2.89278,-4.586114 5.679727,-4.586114 2.822224,0 5.185836,1.869723 5.60917,4.586114 z"
         id="path440" />
      <path
         d="m 109.76779,74.252887 c 3.73945,0 6.13834,-1.799168 6.13834,-4.762503 0,-6.314727 -9.48973,-4.409726 -9.48973,-8.008061 0,-1.411112 1.12889,-2.222502 2.99861,-2.222502 1.65806,0 2.96334,0.705556 3.77473,2.116668 l 2.39889,-1.305278 c -1.27,-2.187224 -3.56306,-3.245558 -6.06778,-3.245558 -3.35139,0 -5.92667,1.693334 -5.92667,4.762503 0,5.891393 9.48973,3.986392 9.48973,8.008061 0,1.340557 -1.12889,2.257779 -3.24556,2.257779 -2.15195,0 -3.63362,-0.811389 -4.58612,-2.645835 l -2.39889,1.270001 c 1.34056,2.751669 3.70417,3.774725 6.91445,3.774725 z"
         id="path442" />
      <path
         d="m 124.93719,74.252887 c 3.73944,0 6.13833,-1.799168 6.13833,-4.762503 0,-6.314727 -9.48972,-4.409726 -9.48972,-8.008061 0,-1.411112 1.12889,-2.222502 2.99861,-2.222502 1.65806,0 2.96333,0.705556 3.77472,2.116668 l 2.39889,-1.305278 c -1.27,-2.187224 -3.56305,-3.245558 -6.06778,-3.245558 -3.35139,0 -5.92667,1.693334 -5.92667,4.762503 0,5.891393 9.48973,3.986392 9.48973,8.008061 0,1.340557 -1.12889,2.257779 -3.24556,2.257779 -2.15194,0 -3.63361,-0.811389 -4.58611,-2.645835 l -2.39889,1.270001 c 1.34055,2.751669 3.70417,3.774725 6.91445,3.774725 z"
         id="path444" />
      <path
         d="m 144.16347,73.935387 h 2.82223 V 59.894822 h 4.33917 v -2.716391 h -4.33917 v -4.268614 h -2.82223 v 4.268614 h -3.21028 v 2.716391 h 3.21028 z"
         id="path446" />
      <path
         d="m 162.79012,56.860931 c -2.64583,0 -4.7625,1.164167 -5.75028,3.351391 V 50.122871 h -2.75167 v 23.812516 h 2.82222 v -9.101673 c 0,-3.704169 2.3989,-5.362226 5.00945,-5.362226 2.78695,0 4.55084,1.869724 4.55084,5.150559 v 9.31334 h 2.82222 V 63.598991 c 0,-4.33917 -2.82222,-6.73806 -6.70278,-6.73806 z"
         id="path448" />
      <path
         d="m 182.05179,74.252887 c 2.89278,0 5.53862,-1.270001 7.05556,-3.421947 l -1.905,-1.481668 c -1.12889,1.587502 -3.06917,2.398891 -5.18584,2.398891 -3.35139,0 -5.75028,-2.257779 -6.06778,-5.362226 h 14.18168 c 0.0705,-0.388056 0.0705,-0.705556 0.0705,-0.987778 0,-4.621392 -3.63361,-8.537228 -8.39611,-8.537228 -4.97417,0 -8.57251,3.951113 -8.57251,8.713617 0,4.903614 3.88056,8.678339 8.81945,8.678339 z m -5.96195,-10.301118 c 0.59973,-2.716391 2.89278,-4.586114 5.67973,-4.586114 2.82222,0 5.18584,1.869723 5.60917,4.586114 z"
         id="path450" />
      <path
         d="m 202.407,73.935387 h 2.89278 v -8.18445 h 4.62139 c 4.76251,0 7.83168,-3.21028 7.83168,-7.337783 0,-4.127503 -3.17501,-7.373061 -7.83168,-7.373061 H 202.407 Z m 2.89278,-10.865563 v -9.348618 h 4.58612 c 3.06916,0 4.97417,2.046113 4.97417,4.691948 0,2.645835 -1.86973,4.65667 -4.97417,4.65667 z"
         id="path452" />
      <path
         d="m 228.54775,74.252887 c 4.86834,0 8.81945,-3.915836 8.81945,-8.678339 0,-4.762504 -3.91584,-8.713617 -8.81945,-8.713617 -4.90362,0 -8.78417,3.951113 -8.78417,8.713617 0,4.762503 3.95111,8.678339 8.78417,8.678339 z m 0,-2.610557 c -3.38667,0 -6.06778,-2.857502 -6.06778,-6.067782 0,-3.175002 2.61055,-6.10306 6.06778,-6.10306 3.45722,0 6.10306,2.928058 6.10306,6.10306 0,3.21028 -2.68111,6.067782 -6.10306,6.067782 z"
         id="path454" />
      <path
         d="m 245.02244,73.935387 h 2.96334 l 4.58611,-13.017509 4.69195,13.017509 h 2.82222 l 6.20889,-16.756956 h -3.06916 l -4.6214,13.264453 -4.72722,-13.264453 h -2.57528 l -4.79778,13.264453 -4.58612,-13.264453 h -3.06917 z"
         id="path456" />
      <path
         d="m 276.63131,74.252887 c 2.89278,0 5.53861,-1.270001 7.05556,-3.421947 l -1.905,-1.481668 c -1.12889,1.587502 -3.06917,2.398891 -5.18584,2.398891 -3.35139,0 -5.75028,-2.257779 -6.06778,-5.362226 h 14.18167 c 0.0706,-0.388056 0.0706,-0.705556 0.0706,-0.987778 0,-4.621392 -3.63362,-8.537228 -8.39612,-8.537228 -4.97417,0 -8.5725,3.951113 -8.5725,8.713617 0,4.903614 3.88055,8.678339 8.81945,8.678339 z m -5.96195,-10.301118 c 0.59972,-2.716391 2.89278,-4.586114 5.67972,-4.586114 2.82223,0 5.18584,1.869723 5.60917,4.586114 z"
         id="path458" />
      <path
         d="m 288.59046,73.935387 h 2.8575 V 66.17427 c -0.0353,-3.739447 2.22251,-6.208893 5.67973,-6.208893 h 0.56445 v -3.104446 c -3.63362,0 -5.53862,1.76389 -6.24418,4.127503 v -3.810003 h -2.8575 z"
         id="path460" />
      <path
         d="m 315.61318,74.252887 c 4.86834,0 8.81945,-3.915836 8.81945,-8.678339 0,-4.762504 -3.91584,-8.713617 -8.81945,-8.713617 -4.90362,0 -8.78417,3.951113 -8.78417,8.713617 0,4.762503 3.95111,8.678339 8.78417,8.678339 z m 0,-2.610557 c -3.38667,0 -6.06778,-2.857502 -6.06778,-6.067782 0,-3.175002 2.61055,-6.10306 6.06778,-6.10306 3.45722,0 6.10306,2.928058 6.10306,6.10306 0,3.21028 -2.68111,6.067782 -6.10306,6.067782 z"
         id="path462" />
      <path
         d="m 329.08923,73.935387 h 2.82222 V 59.894822 h 4.65667 v -2.716391 h -4.65667 v -0.564445 c 0,-3.457224 1.65806,-4.127503 3.88056,-4.127503 0.24694,0 0.42333,0 0.77611,0.03528 V 49.80537 c -0.38806,-0.03528 -0.59972,-0.03528 -0.84667,-0.03528 -3.77472,0 -6.63222,1.940279 -6.63222,6.843893 v 0.564445 h -2.50473 v 2.716391 h 2.50473 z"
         id="path464" />
      <path
         d="m 347.64521,73.935387 h 2.89278 V 55.485096 l 13.82889,18.450291 h 2.85751 V 51.040093 h -2.89278 V 69.313995 L 350.60854,51.040093 h -2.96333 z"
         id="path466" />
      <path
         d="m 372.48072,53.756484 h 3.13973 v -3.175002 h -3.13973 z m 0.17639,20.178903 h 2.82223 V 57.178431 h -2.82223 z"
         id="path468" />
      <path
         d="m 378.3368,73.935387 h 3.17501 l 4.69194,-6.491116 4.76251,6.491116 h 3.175 l -6.31473,-8.643062 5.85612,-8.113894 h -3.13973 l -4.30389,5.926671 -4.30389,-5.926671 h -3.13972 l 5.85611,8.078616 z"
         id="path470"
         style="display:inline" />
    </g>
  </g>
</svg>
